<?xml version="1.0" encoding="UTF-8" standalone="no"?>
<!-- Created with Inkscape (http://www.inkscape.org/) -->

<svg
   xmlns:dc="http://purl.org/dc/elements/1.1/"
   xmlns:cc="http://creativecommons.org/ns#"
   xmlns:rdf="http://www.w3.org/1999/02/22-rdf-syntax-ns#"
   xmlns:svg="http://www.w3.org/2000/svg"
   xmlns="http://www.w3.org/2000/svg"
   xmlns:sodipodi="http://sodipodi.sourceforge.net/DTD/sodipodi-0.dtd"
   xmlns:inkscape="http://www.inkscape.org/namespaces/inkscape"
   width="523.35938"
   height="35.957031"
   viewBox="0 0 523.35938 35.957031"
   id="svg2"
   version="1.1"
   inkscape:version="0.91 r13725"
   sodipodi:docname="email.svg">
  <defs
     id="defs4" />
  <sodipodi:namedview
     id="base"
     pagecolor="#ffffff"
     bordercolor="#666666"
     borderopacity="1.0"
     inkscape:pageopacity="0.0"
     inkscape:pageshadow="2"
     inkscape:zoom="0.35"
     inkscape:cx="375"
     inkscape:cy="520.00013"
     inkscape:document-units="px"
     inkscape:current-layer="layer1"
     showgrid="false"
     inkscape:window-width="1366"
     inkscape:window-height="705"
     inkscape:window-x="-8"
     inkscape:window-y="-8"
     inkscape:window-maximized="1"
     units="px"
     fit-margin-top="0"
     fit-margin-left="0"
     fit-margin-right="0"
     fit-margin-bottom="0" />
  <metadata
     id="metadata7">
    <rdf:RDF>
      <cc:Work
         rdf:about="">
        <dc:format>image/svg+xml</dc:format>
        <dc:type
           rdf:resource="http://purl.org/dc/dcmitype/StillImage" />
        <dc:title></dc:title>
      </cc:Work>
    </rdf:RDF>
  </metadata>
  <g
     inkscape:label="Layer 1"
     inkscape:groupmode="layer"
     id="layer1"
     transform="translate(0,-1016.4052)">
    <flowRoot
       xml:space="preserve"
       id="flowRoot3344"
       style="font-style:normal;font-weight:normal;font-size:40px;line-height:125%;font-family:sans-serif;letter-spacing:0px;word-spacing:0px;fill:#000000;fill-opacity:1;stroke:none;stroke-width:1px;stroke-linecap:butt;stroke-linejoin:miter;stroke-opacity:1"><flowRegion
         id="flowRegion3346"><rect
           id="rect3348"
           width="140"
           height="194.28572"
           x="288.57144"
           y="146.64792" /></flowRegion><flowPara
         id="flowPara3350"></flowPara></flowRoot>    <g
       style="font-style:normal;font-weight:normal;font-size:40px;line-height:125%;font-family:sans-serif;letter-spacing:0px;word-spacing:0px;fill:#fff;fill-opacity:1;stroke:none;stroke-width:1px;stroke-linecap:butt;stroke-linejoin:miter;stroke-opacity:1"
       id="text3448">
      <path
         d="M 15.253906,1042.4012 13.125,1044.5497 0,1033.5927 l 13.125,-10.9571 2.128906,2.168 -10.644531,8.75 10.644531,8.8476 z"
         style="font-style:normal;font-variant:normal;font-weight:normal;font-stretch:normal;font-family:Consolas;-inkscape-font-specification:Consolas"
         id="path3453" />
      <path
         d="m 36.464844,1044.2372 0,-14.082 q 0,-0.918 -0.07813,-1.504 -0.05859,-0.5859 -0.214844,-0.9179 -0.136719,-0.3516 -0.371094,-0.4883 -0.214844,-0.1367 -0.546875,-0.1367 -0.390625,0 -0.722656,0.2344 -0.332031,0.2343 -0.722656,0.7617 -0.371094,0.5273 -0.839844,1.4062 -0.449219,0.8594 -1.074219,2.1289 l 0,12.5977 -3.105469,0 0,-13.711 q 0,-1.0742 -0.07813,-1.7382 -0.05859,-0.6641 -0.214843,-1.0352 -0.136719,-0.3711 -0.371094,-0.5078 -0.234375,-0.1367 -0.566406,-0.1367 -0.351563,0 -0.664063,0.1953 -0.3125,0.1953 -0.703125,0.7031 -0.371094,0.5078 -0.839844,1.3867 -0.46875,0.8789 -1.113281,2.2461 l 0,12.5977 -3.125,0 0,-19.6094 2.597656,0 0.15625,3.7305 q 0.507813,-1.1133 0.976563,-1.8946 0.488281,-0.7812 0.996094,-1.25 0.507812,-0.4882 1.074218,-0.7031 0.585938,-0.2344 1.289063,-0.2344 1.582031,0 2.402344,1.0352 0.820312,1.0352 0.820312,3.2031 0.46875,-1.0156 0.917969,-1.7968 0.449219,-0.8008 0.957031,-1.3282 0.527344,-0.5468 1.152344,-0.8203 0.625,-0.293 1.445312,-0.293 3.691407,0 3.691407,5.6836 l 0,14.2774 -3.125,0 z"
         style="font-style:normal;font-variant:normal;font-weight:normal;font-stretch:normal;font-family:Consolas;-inkscape-font-specification:Consolas"
         id="path3455" />
      <path
         d="m 51.191406,1027.4403 -5.800781,0 0,-2.8125 9.238281,0 0,16.7774 5.839844,0 0,2.832 -15.722656,0 0,-2.832 6.445312,0 0,-13.9649 z m 1.191406,-11.0351 q 0.566407,0 1.054688,0.2148 0.488281,0.1953 0.839844,0.5664 0.371093,0.3711 0.566406,0.8594 0.214844,0.4687 0.214844,1.0351 0,0.5469 -0.214844,1.0352 -0.195313,0.4883 -0.566406,0.8594 -0.351563,0.3711 -0.839844,0.5859 -0.488281,0.1953 -1.054688,0.1953 -0.566406,0 -1.054687,-0.1953 -0.488281,-0.2148 -0.859375,-0.5859 -0.351563,-0.3711 -0.566406,-0.8594 -0.195313,-0.4883 -0.195313,-1.0352 0,-0.5664 0.195313,-1.0351 0.214843,-0.4883 0.566406,-0.8594 0.371094,-0.3711 0.859375,-0.5664 0.488281,-0.2148 1.054687,-0.2148 z"
         style="font-style:normal;font-variant:normal;font-weight:normal;font-stretch:normal;font-family:Consolas;-inkscape-font-specification:Consolas"
         id="path3457" />
      <path
         d="m 84.179687,1044.2372 -4.667968,0 -9.140625,-10.5078 0,10.5078 -3.398438,0 0,-27.5977 3.398438,0 0,16.9532 8.808593,-8.9649 4.492188,0 -9.199219,9.043 9.707031,10.5664 z"
         style="font-style:normal;font-variant:normal;font-weight:normal;font-stretch:normal;font-family:Consolas;-inkscape-font-specification:Consolas"
         id="path3459" />
      <path
         d="m 105.13672,1033.3973 q 0,0.7227 -0.0195,1.211 -0.0195,0.4883 -0.0586,0.9179 l -13.769528,0 q 0,3.0079 1.679688,4.629 1.679687,1.6015 4.84375,1.6015 0.859375,0 1.71875,-0.059 0.85938,-0.078 1.66016,-0.1953 0.80078,-0.1172 1.52343,-0.2539 0.74219,-0.1562 1.36719,-0.332 l 0,2.7929 q -1.38672,0.3907 -3.14453,0.625 -1.738281,0.2539 -3.613281,0.2539 -2.519532,0 -4.335938,-0.6835 -1.816406,-0.6836 -2.988281,-1.9727 -1.152344,-1.3086 -1.71875,-3.1836 -0.546875,-1.8945 -0.546875,-4.2773 0,-2.0704 0.585937,-3.9063 0.605469,-1.8555 1.738282,-3.2422 1.152343,-1.4062 2.8125,-2.2265 1.660156,-0.8204 3.769531,-0.8204 2.050781,0 3.632815,0.6446 1.58203,0.6445 2.65625,1.8359 1.09375,1.1719 1.64062,2.8711 0.56641,1.6797 0.56641,3.7695 z m -3.53516,-0.4882 q 0.0586,-1.3086 -0.2539,-2.3829 -0.3125,-1.0937 -0.97657,-1.875 -0.644528,-0.7812 -1.62109,-1.2109 -0.976563,-0.4492 -2.265625,-0.4492 -1.113281,0 -2.03125,0.4297 -0.917969,0.4297 -1.582031,1.2109 -0.664063,0.7813 -1.074219,1.875 -0.410156,1.0938 -0.507813,2.4024 l 10.312498,0 z"
         style="font-style:normal;font-variant:normal;font-weight:normal;font-stretch:normal;font-family:Consolas;-inkscape-font-specification:Consolas"
         id="path3461" />
      <path
         d="m 122.71484,1036.2684 q -0.17578,1.25 -0.19531,2.0703 -0.0195,0.8204 0.0977,1.2891 0.13672,0.4688 0.41015,0.6641 0.27344,0.1758 0.6836,0.1758 0.54687,0 1.03515,-0.5665 0.48829,-0.5859 0.85938,-1.7773 0.39062,-1.2109 0.60547,-3.0469 0.23437,-1.8359 0.23437,-4.3554 0,-2.8125 -0.35156,-5.0196 -0.35156,-2.207 -1.11328,-3.75 -0.76172,-1.5429 -1.99219,-2.3437 -1.21094,-0.8203 -2.94922,-0.8203 -1.32812,0 -2.57812,0.6836 -1.23047,0.664 -2.30469,1.8945 -1.05469,1.2109 -1.93359,2.9297 -0.85938,1.6992 -1.48438,3.7695 -0.60547,2.0703 -0.95703,4.4531 -0.33203,2.3828 -0.33203,4.961 0,6.289 1.89453,9.375 1.89453,3.1054 5.33203,3.1054 1.73828,0 3.24219,-0.4101 1.50391,-0.3906 3.125,-1.1914 l 0,2.5195 q -1.60156,0.7422 -3.20313,1.1133 -1.60156,0.3711 -3.35937,0.3711 -4.98047,0 -7.38281,-3.7305 -2.38282,-3.7305 -2.42188,-11.1133 -0.0195,-2.9492 0.39063,-5.6445 0.41015,-2.7148 1.17187,-5.0586 0.78125,-2.3437 1.875,-4.2578 1.11328,-1.9336 2.5,-3.2813 1.40625,-1.3671 3.04688,-2.1093 1.64062,-0.7617 3.49609,-0.7617 2.32422,0 4.02344,0.957 1.71875,0.9375 2.83203,2.7344 1.11328,1.7773 1.64062,4.375 0.54688,2.5976 0.54688,5.9179 -0.0195,3.3594 -0.44922,5.7617 -0.41016,2.3829 -1.17187,3.9063 -0.76172,1.5234 -1.85547,2.2461 -1.07422,0.7031 -2.40235,0.7031 -1.52343,0 -2.26562,-0.7812 -0.74219,-0.7813 -0.74219,-2.1094 -0.74219,1.5039 -1.60156,2.207 -0.85938,0.6836 -2.07031,0.6836 -1.83594,0 -2.75391,-1.3672 -0.91797,-1.3867 -0.91797,-4.3554 0,-1.0743 0.11719,-2.3047 0.13672,-1.2305 0.42969,-2.461 0.3125,-1.25 0.80078,-2.3828 0.48828,-1.1523 1.1914,-2.0117 0.72266,-0.8789 1.69922,-1.4062 0.97656,-0.5274 2.22656,-0.5274 0.74219,0 1.38672,0.1758 0.64453,0.1758 0.9375,0.3516 l 2.51953,-0.6055 -1.5625,10.1562 z m -1.99218,-6.9531 q -0.17578,-0.2344 -0.54688,-0.4101 -0.35156,-0.1954 -0.89844,-0.1954 -0.58593,0 -1.05468,0.4102 -0.46875,0.4102 -0.83985,1.0937 -0.35156,0.6836 -0.60547,1.5625 -0.23437,0.8594 -0.41015,1.7774 -0.15625,0.918 -0.23438,1.8164 -0.0586,0.8789 -0.0586,1.582 0,1.875 0.23437,2.6953 0.23438,0.8204 0.89844,0.8204 0.23438,0 0.46875,-0.098 0.23438,-0.098 0.48828,-0.3711 0.27344,-0.293 0.58594,-0.8008 0.3125,-0.5078 0.68359,-1.3281 l 1.28907,-8.5547 z"
         style="font-style:normal;font-variant:normal;font-weight:normal;font-stretch:normal;font-family:Consolas;-inkscape-font-specification:Consolas"
         id="path3463" />
      <path
         d="m 146.62109,1044.2372 0,-14.082 q 0,-0.918 -0.0781,-1.504 -0.0586,-0.5859 -0.21485,-0.9179 -0.13671,-0.3516 -0.37109,-0.4883 -0.21484,-0.1367 -0.54687,-0.1367 -0.39063,0 -0.72266,0.2344 -0.33203,0.2343 -0.72266,0.7617 -0.37109,0.5273 -0.83984,1.4062 -0.44922,0.8594 -1.07422,2.1289 l 0,12.5977 -3.10547,0 0,-13.711 q 0,-1.0742 -0.0781,-1.7382 -0.0586,-0.6641 -0.21485,-1.0352 -0.13672,-0.3711 -0.37109,-0.5078 -0.23438,-0.1367 -0.56641,-0.1367 -0.35156,0 -0.66406,0.1953 -0.3125,0.1953 -0.70312,0.7031 -0.3711,0.5078 -0.83985,1.3867 -0.46875,0.8789 -1.11328,2.2461 l 0,12.5977 -3.125,0 0,-19.6094 2.59766,0 0.15625,3.7305 q 0.50781,-1.1133 0.97656,-1.8946 0.48828,-0.7812 0.99609,-1.25 0.50782,-0.4882 1.07422,-0.7031 0.58594,-0.2344 1.28906,-0.2344 1.58204,0 2.40235,1.0352 0.82031,1.0352 0.82031,3.2031 0.46875,-1.0156 0.91797,-1.7968 0.44922,-0.8008 0.95703,-1.3282 0.52734,-0.5468 1.15234,-0.8203 0.625,-0.293 1.44532,-0.293 3.6914,0 3.6914,5.6836 l 0,14.2774 -3.125,0 z"
         style="font-style:normal;font-variant:normal;font-weight:normal;font-stretch:normal;font-family:Consolas;-inkscape-font-specification:Consolas"
         id="path3465" />
      <path
         d="m 161.34766,1027.4403 -5.80079,0 0,-2.8125 9.23829,0 0,16.7774 5.83984,0 0,2.832 -15.72266,0 0,-2.832 6.44532,0 0,-13.9649 z m 1.1914,-11.0351 q 0.56641,0 1.05469,0.2148 0.48828,0.1953 0.83984,0.5664 0.3711,0.3711 0.56641,0.8594 0.21484,0.4687 0.21484,1.0351 0,0.5469 -0.21484,1.0352 -0.19531,0.4883 -0.56641,0.8594 -0.35156,0.3711 -0.83984,0.5859 -0.48828,0.1953 -1.05469,0.1953 -0.5664,0 -1.05469,-0.1953 -0.48828,-0.2148 -0.85937,-0.5859 -0.35156,-0.3711 -0.56641,-0.8594 -0.19531,-0.4883 -0.19531,-1.0352 0,-0.5664 0.19531,-1.0351 0.21485,-0.4883 0.56641,-0.8594 0.37109,-0.3711 0.85937,-0.5664 0.48829,-0.2148 1.05469,-0.2148 z"
         style="font-style:normal;font-variant:normal;font-weight:normal;font-stretch:normal;font-family:Consolas;-inkscape-font-specification:Consolas"
         id="path3467" />
      <path
         d="m 191.93359,1043.5145 q -1.32812,0.5078 -2.73437,0.7422 -1.38672,0.2539 -2.8711,0.2539 -4.64843,0 -7.16796,-2.5195 -2.5,-2.5195 -2.5,-7.3633 0,-2.3242 0.72265,-4.2187 0.72266,-1.8946 2.03125,-3.2422 1.3086,-1.3477 3.125,-2.0703 1.81641,-0.7422 4.00391,-0.7422 1.52344,0 2.85156,0.2148 1.32813,0.2149 2.53906,0.7031 l 0,3.2422 q -1.26953,-0.664 -2.59765,-0.957 -1.3086,-0.3125 -2.71485,-0.3125 -1.30859,0 -2.48047,0.5078 -1.15234,0.4883 -2.03125,1.4258 -0.8789,0.9375 -1.38671,2.2851 -0.50782,1.3477 -0.50782,3.0469 0,3.5547 1.71875,5.3321 1.73828,1.7578 4.80469,1.7578 1.38672,0 2.67578,-0.3125 1.3086,-0.3125 2.51953,-0.9375 l 0,3.164 z"
         style="font-style:normal;font-variant:normal;font-weight:normal;font-stretch:normal;font-family:Consolas;-inkscape-font-specification:Consolas"
         id="path3469" />
      <path
         d="m 214.49219,1044.2372 -3.39844,0 0,-12.5195 q 0,-2.2657 -0.85938,-3.379 -0.83984,-1.1328 -2.42187,-1.1328 -0.68359,0 -1.28906,0.1953 -0.58594,0.1758 -1.23047,0.6446 -0.64453,0.4492 -1.40625,1.2304 -0.76172,0.7813 -1.75781,1.9532 l 0,13.0078 -3.39844,0 0,-27.5977 3.39844,0 0,7.9883 -0.11719,3.0859 q 0.80078,-0.957 1.5625,-1.6015 0.78125,-0.6641 1.54297,-1.0742 0.78125,-0.4102 1.58203,-0.586 0.80078,-0.1758 1.66015,-0.1758 2.92969,0 4.53125,1.7969 1.60157,1.7774 1.60157,5.3711 l 0,12.793 z"
         style="font-style:normal;font-variant:normal;font-weight:normal;font-stretch:normal;font-family:Consolas;-inkscape-font-specification:Consolas"
         id="path3471" />
      <path
         d="m 233.35937,1044.2372 -0.0781,-2.6367 q -1.60156,1.582 -3.26172,2.2851 -1.64062,0.7031 -3.45703,0.7031 -1.67969,0 -2.87109,-0.4296 -1.19141,-0.4297 -1.97266,-1.1719 -0.76172,-0.7617 -1.13281,-1.7774 -0.35157,-1.0156 -0.35157,-2.207 0,-2.9492 2.1875,-4.6094 2.20704,-1.6797 6.50391,-1.6797 l 4.0625,0 0,-1.7187 q 0,-1.7383 -1.11328,-2.7734 -1.11328,-1.0547 -3.39844,-1.0547 -1.66015,0 -3.28125,0.3711 -1.60156,0.3711 -3.32031,1.0547 l 0,-3.0665 q 0.64453,-0.2343 1.42578,-0.4492 0.80078,-0.2343 1.67969,-0.4101 0.8789,-0.1758 1.83594,-0.2735 0.95703,-0.1172 1.93359,-0.1172 1.77734,0 3.20312,0.3907 1.42579,0.3906 2.40235,1.1914 0.99609,0.8008 1.52344,2.0117 0.52734,1.2109 0.52734,2.8516 l 0,13.5156 -3.04688,0 z m -0.37109,-8.9258 -4.31641,0 q -1.26953,0 -2.1875,0.2539 -0.91796,0.2539 -1.5039,0.7227 -0.58594,0.4687 -0.87891,1.1328 -0.27344,0.6445 -0.27344,1.4648 0,0.5664 0.17579,1.0938 0.17578,0.5078 0.5664,0.9179 0.39063,0.3907 1.01563,0.625 0.625,0.2344 1.52343,0.2344 1.17188,0 2.67579,-0.7031 1.52343,-0.7227 3.20312,-2.2656 l 0,-3.4766 z"
         style="font-style:normal;font-variant:normal;font-weight:normal;font-stretch:normal;font-family:Consolas;-inkscape-font-specification:Consolas"
         id="path3473" />
      <path
         d="m 259.35547,1033.3973 q 0,0.7227 -0.0195,1.211 -0.0195,0.4883 -0.0586,0.9179 l -13.76953,0 q 0,3.0079 1.67969,4.629 1.67969,1.6015 4.84375,1.6015 0.85937,0 1.71875,-0.059 0.85937,-0.078 1.66016,-0.1953 0.80078,-0.1172 1.52343,-0.2539 0.74219,-0.1562 1.36719,-0.332 l 0,2.7929 q -1.38672,0.3907 -3.14453,0.625 -1.73828,0.2539 -3.61328,0.2539 -2.51953,0 -4.33594,-0.6835 -1.81641,-0.6836 -2.98828,-1.9727 -1.15234,-1.3086 -1.71875,-3.1836 -0.54688,-1.8945 -0.54688,-4.2773 0,-2.0704 0.58594,-3.9063 0.60547,-1.8555 1.73828,-3.2422 1.15235,-1.4062 2.8125,-2.2265 1.66016,-0.8204 3.76953,-0.8204 2.05079,0 3.63282,0.6446 1.58203,0.6445 2.65625,1.8359 1.09375,1.1719 1.64062,2.8711 0.56641,1.6797 0.56641,3.7695 z m -3.53516,-0.4882 q 0.0586,-1.3086 -0.2539,-2.3829 -0.3125,-1.0937 -0.97657,-1.875 -0.64453,-0.7812 -1.62109,-1.2109 -0.97656,-0.4492 -2.26563,-0.4492 -1.11328,0 -2.03125,0.4297 -0.91796,0.4297 -1.58203,1.2109 -0.66406,0.7813 -1.07422,1.875 -0.41015,1.0938 -0.50781,2.4024 l 10.3125,0 z"
         style="font-style:normal;font-variant:normal;font-weight:normal;font-stretch:normal;font-family:Consolas;-inkscape-font-specification:Consolas"
         id="path3475" />
      <path
         d="m 271.50391,1019.4325 -5.80079,0 0,-2.793 9.23829,0 0,24.7657 5.83984,0 0,2.832 -15.72266,0 0,-2.832 6.44532,0 0,-21.9727 z"
         style="font-style:normal;font-variant:normal;font-weight:normal;font-stretch:normal;font-family:Consolas;-inkscape-font-specification:Consolas"
         id="path3477" />
      <path
         d="m 302.65625,1043.9637 q -1.15234,0.293 -2.38281,0.4102 -1.23047,0.1367 -2.5,0.1367 -3.69141,0 -5.50782,-1.6601 -1.8164,-1.6797 -1.8164,-5.1368 l 0,-10.2343 -5.48828,0 0,-2.8516 5.48828,0 0,-5.3906 3.39844,-0.8789 0,6.2695 8.80859,0 0,2.8516 -8.80859,0 0,9.9609 q 0,2.1094 1.11328,3.1641 1.13281,1.0351 3.32031,1.0351 0.9375,0 2.05078,-0.1367 1.11328,-0.1562 2.32422,-0.4687 l 0,2.9296 z"
         style="font-style:normal;font-variant:normal;font-weight:normal;font-stretch:normal;font-family:Consolas;-inkscape-font-specification:Consolas"
         id="path3479" />
      <path
         d="m 324.64844,1044.2372 -3.39844,0 0,-12.5195 q 0,-2.2657 -0.85938,-3.379 -0.83984,-1.1328 -2.42187,-1.1328 -0.68359,0 -1.28906,0.1953 -0.58594,0.1758 -1.23047,0.6446 -0.64453,0.4492 -1.40625,1.2304 -0.76172,0.7813 -1.75781,1.9532 l 0,13.0078 -3.39844,0 0,-27.5977 3.39844,0 0,7.9883 -0.11719,3.0859 q 0.80078,-0.957 1.5625,-1.6015 0.78125,-0.6641 1.54297,-1.0742 0.78125,-0.4102 1.58203,-0.586 0.80078,-0.1758 1.66015,-0.1758 2.92969,0 4.53125,1.7969 1.60157,1.7774 1.60157,5.3711 l 0,12.793 z"
         style="font-style:normal;font-variant:normal;font-weight:normal;font-stretch:normal;font-family:Consolas;-inkscape-font-specification:Consolas"
         id="path3481" />
      <path
         d="m 347.48047,1033.3973 q 0,0.7227 -0.0195,1.211 -0.0195,0.4883 -0.0586,0.9179 l -13.76953,0 q 0,3.0079 1.67969,4.629 1.67969,1.6015 4.84375,1.6015 0.85937,0 1.71875,-0.059 0.85937,-0.078 1.66016,-0.1953 0.80078,-0.1172 1.52343,-0.2539 0.74219,-0.1562 1.36719,-0.332 l 0,2.7929 q -1.38672,0.3907 -3.14453,0.625 -1.73828,0.2539 -3.61328,0.2539 -2.51953,0 -4.33594,-0.6835 -1.81641,-0.6836 -2.98828,-1.9727 -1.15234,-1.3086 -1.71875,-3.1836 -0.54688,-1.8945 -0.54688,-4.2773 0,-2.0704 0.58594,-3.9063 0.60547,-1.8555 1.73828,-3.2422 1.15235,-1.4062 2.8125,-2.2265 1.66016,-0.8204 3.76953,-0.8204 2.05079,0 3.63282,0.6446 1.58203,0.6445 2.65625,1.8359 1.09375,1.1719 1.64062,2.8711 0.56641,1.6797 0.56641,3.7695 z m -3.53516,-0.4882 q 0.0586,-1.3086 -0.2539,-2.3829 -0.3125,-1.0937 -0.97657,-1.875 -0.64453,-0.7812 -1.62109,-1.2109 -0.97656,-0.4492 -2.26563,-0.4492 -1.11328,0 -2.03125,0.4297 -0.91796,0.4297 -1.58203,1.2109 -0.66406,0.7813 -1.07422,1.875 -0.41015,1.0938 -0.50781,2.4024 l 10.3125,0 z"
         style="font-style:normal;font-variant:normal;font-weight:normal;font-stretch:normal;font-family:Consolas;-inkscape-font-specification:Consolas"
         id="path3483" />
      <path
         d="m 353.75,1024.6278 3.10547,0 0.0976,3.6133 q 1.73829,-2.0899 3.41797,-3.0274 1.69922,-0.9375 3.41797,-0.9375 3.04688,0 4.60938,1.9727 1.58203,1.9727 1.46484,5.8594 l -3.4375,0 q 0.0586,-2.5781 -0.76172,-3.7305 -0.80078,-1.1719 -2.36328,-1.1719 -0.68359,0 -1.38672,0.2539 -0.68359,0.2344 -1.42578,0.7813 -0.72266,0.5273 -1.54297,1.3672 -0.82031,0.8398 -1.75781,2.0312 l 0,12.5977 -3.4375,0 0,-19.6094 z"
         style="font-style:normal;font-variant:normal;font-weight:normal;font-stretch:normal;font-family:Consolas;-inkscape-font-specification:Consolas"
         id="path3485" />
      <path
         d="m 381.66016,1027.4403 -5.80079,0 0,-2.8125 9.23829,0 0,16.7774 5.83984,0 0,2.832 -15.72266,0 0,-2.832 6.44532,0 0,-13.9649 z m 1.1914,-11.0351 q 0.56641,0 1.05469,0.2148 0.48828,0.1953 0.83984,0.5664 0.3711,0.3711 0.56641,0.8594 0.21484,0.4687 0.21484,1.0351 0,0.5469 -0.21484,1.0352 -0.19531,0.4883 -0.56641,0.8594 -0.35156,0.3711 -0.83984,0.5859 -0.48828,0.1953 -1.05469,0.1953 -0.5664,0 -1.05469,-0.1953 -0.48828,-0.2148 -0.85937,-0.5859 -0.35156,-0.3711 -0.56641,-0.8594 -0.19531,-0.4883 -0.19531,-1.0352 0,-0.5664 0.19531,-1.0351 0.21485,-0.4883 0.56641,-0.8594 0.37109,-0.3711 0.85937,-0.5664 0.48829,-0.2148 1.05469,-0.2148 z"
         style="font-style:normal;font-variant:normal;font-weight:normal;font-stretch:normal;font-family:Consolas;-inkscape-font-specification:Consolas"
         id="path3487" />
      <path
         d="m 414.08203,1034.2762 q 0,2.2852 -0.64453,4.1993 -0.64453,1.8945 -1.85547,3.2617 -1.21094,1.3476 -2.94922,2.1094 -1.73828,0.7421 -3.94531,0.7421 -2.10938,0 -3.78906,-0.6445 -1.66016,-0.664 -2.83203,-1.9336 -1.15235,-1.2695 -1.77735,-3.1445 -0.60547,-1.875 -0.60547,-4.3164 0,-2.2852 0.64453,-4.1602 0.64454,-1.8945 1.85547,-3.2422 1.21094,-1.3671 2.94922,-2.1093 1.73828,-0.7618 3.94531,-0.7618 2.10938,0 3.76954,0.6641 1.67968,0.6445 2.83203,1.9141 1.17187,1.25 1.77734,3.125 0.625,1.875 0.625,4.2968 z m -3.47656,0.1563 q 0,-1.8164 -0.41016,-3.1641 -0.39062,-1.3672 -1.13281,-2.2656 -0.74219,-0.918 -1.81641,-1.3672 -1.05468,-0.4687 -2.36328,-0.4687 -1.52344,0 -2.61719,0.6054 -1.07421,0.586 -1.77734,1.5821 -0.68359,0.9961 -1.01562,2.3242 -0.3125,1.3086 -0.3125,2.7539 0,1.8164 0.39062,3.1836 0.41016,1.3672 1.15234,2.2851 0.74219,0.8985 1.79688,1.3672 1.05469,0.4493 2.38281,0.4493 1.52344,0 2.59766,-0.586 1.09375,-0.6055 1.77734,-1.6015 0.70313,-0.9961 1.01563,-2.3047 0.33203,-1.3282 0.33203,-2.793 z"
         style="font-style:normal;font-variant:normal;font-weight:normal;font-stretch:normal;font-family:Consolas;-inkscape-font-specification:Consolas"
         id="path3489" />
      <path
         d="m 434.84375,1043.9637 q -1.15234,0.293 -2.38281,0.4102 -1.23047,0.1367 -2.5,0.1367 -3.69141,0 -5.50782,-1.6601 -1.8164,-1.6797 -1.8164,-5.1368 l 0,-10.2343 -5.48828,0 0,-2.8516 5.48828,0 0,-5.3906 3.39844,-0.8789 0,6.2695 8.80859,0 0,2.8516 -8.80859,0 0,9.9609 q 0,2.1094 1.11328,3.1641 1.13281,1.0351 3.32031,1.0351 0.9375,0 2.05078,-0.1367 1.11328,-0.1562 2.32422,-0.4687 l 0,2.9296 z"
         style="font-style:normal;font-variant:normal;font-weight:normal;font-stretch:normal;font-family:Consolas;-inkscape-font-specification:Consolas"
         id="path3491" />
      <path
         d="m 448.78906,1038.0848 q 0.66406,0 1.25,0.2539 0.60547,0.254 1.03516,0.7032 0.44922,0.4492 0.70312,1.0547 0.25391,0.5859 0.25391,1.2695 0,0.6641 -0.25391,1.25 -0.2539,0.5859 -0.70312,1.0351 -0.42969,0.4297 -1.03516,0.6836 -0.58594,0.2539 -1.25,0.2539 -0.68359,0 -1.26953,-0.2539 -0.58594,-0.2539 -1.03516,-0.6836 -0.42968,-0.4492 -0.68359,-1.0351 -0.25391,-0.5859 -0.25391,-1.25 0,-0.6836 0.25391,-1.2695 0.25391,-0.6055 0.68359,-1.0547 0.44922,-0.4492 1.03516,-0.7032 0.58594,-0.2539 1.26953,-0.2539 z"
         style="font-style:normal;font-variant:normal;font-weight:normal;font-stretch:normal;font-family:Consolas;-inkscape-font-specification:Consolas"
         id="path3493" />
      <path
         d="m 477.08984,1044.2372 0,-14.082 q 0,-0.918 -0.0781,-1.504 -0.0586,-0.5859 -0.21485,-0.9179 -0.13671,-0.3516 -0.37109,-0.4883 -0.21484,-0.1367 -0.54687,-0.1367 -0.39063,0 -0.72266,0.2344 -0.33203,0.2343 -0.72266,0.7617 -0.37109,0.5273 -0.83984,1.4062 -0.44922,0.8594 -1.07422,2.1289 l 0,12.5977 -3.10547,0 0,-13.711 q 0,-1.0742 -0.0781,-1.7382 -0.0586,-0.6641 -0.21485,-1.0352 -0.13672,-0.3711 -0.37109,-0.5078 -0.23438,-0.1367 -0.56641,-0.1367 -0.35156,0 -0.66406,0.1953 -0.3125,0.1953 -0.70312,0.7031 -0.3711,0.5078 -0.83985,1.3867 -0.46875,0.8789 -1.11328,2.2461 l 0,12.5977 -3.125,0 0,-19.6094 2.59766,0 0.15625,3.7305 q 0.50781,-1.1133 0.97656,-1.8946 0.48828,-0.7812 0.99609,-1.25 0.50782,-0.4882 1.07422,-0.7031 0.58594,-0.2344 1.28906,-0.2344 1.58204,0 2.40235,1.0352 0.82031,1.0352 0.82031,3.2031 0.46875,-1.0156 0.91797,-1.7968 0.44922,-0.8008 0.95703,-1.3282 0.52734,-0.5468 1.15234,-0.8203 0.625,-0.293 1.44532,-0.293 3.6914,0 3.6914,5.6836 l 0,14.2774 -3.125,0 z"
         style="font-style:normal;font-variant:normal;font-weight:normal;font-stretch:normal;font-family:Consolas;-inkscape-font-specification:Consolas"
         id="path3495" />
      <path
         d="m 501.69922,1033.3973 q 0,0.7227 -0.0195,1.211 -0.0195,0.4883 -0.0586,0.9179 l -13.76953,0 q 0,3.0079 1.67969,4.629 1.67969,1.6015 4.84375,1.6015 0.85937,0 1.71875,-0.059 0.85937,-0.078 1.66016,-0.1953 0.80078,-0.1172 1.52343,-0.2539 0.74219,-0.1562 1.36719,-0.332 l 0,2.7929 q -1.38672,0.3907 -3.14453,0.625 -1.73828,0.2539 -3.61328,0.2539 -2.51953,0 -4.33594,-0.6835 -1.81641,-0.6836 -2.98828,-1.9727 -1.15234,-1.3086 -1.71875,-3.1836 -0.54688,-1.8945 -0.54688,-4.2773 0,-2.0704 0.58594,-3.9063 0.60547,-1.8555 1.73828,-3.2422 1.15235,-1.4062 2.8125,-2.2265 1.66016,-0.8204 3.76953,-0.8204 2.05079,0 3.63282,0.6446 1.58203,0.6445 2.65625,1.8359 1.09375,1.1719 1.64062,2.8711 0.56641,1.6797 0.56641,3.7695 z m -3.53516,-0.4882 q 0.0586,-1.3086 -0.2539,-2.3829 -0.3125,-1.0937 -0.97657,-1.875 -0.64453,-0.7812 -1.62109,-1.2109 -0.97656,-0.4492 -2.26563,-0.4492 -1.11328,0 -2.03125,0.4297 -0.91796,0.4297 -1.58203,1.2109 -0.66406,0.7813 -1.07422,1.875 -0.41015,1.0938 -0.50781,2.4024 l 10.3125,0 z"
         style="font-style:normal;font-variant:normal;font-weight:normal;font-stretch:normal;font-family:Consolas;-inkscape-font-specification:Consolas"
         id="path3497" />
      <path
         d="m 508.125,1024.8036 2.10937,-2.168 13.125,10.9571 -13.125,10.957 -2.10937,-2.1485 10.64453,-8.7695 -10.64453,-8.8281 z"
         style="font-style:normal;font-variant:normal;font-weight:normal;font-stretch:normal;font-family:Consolas;-inkscape-font-specification:Consolas"
         id="path3499" />
    </g>
  </g>
</svg>
