<svg xmlns="http://www.w3.org/2000/svg" xmlns:xlink="http://www.w3.org/1999/xlink" viewBox="0 0 3670 4095">  <defs>    <style type="text/css">      image {        -webkit-animation-duration: 8s;                animation-duration: 8s;        -webkit-animation-name: scale;                animation-name: scale;        -webkit-animation-timing-function: ease;                animation-timing-function: ease;        -webkit-animation-iteration-count: infinite;                animation-iteration-count: infinite;      }      @-webkit-keyframes scale {        30% {          transform: scale(1);        }        50% {          transform: scale(0.1);        }        70% {          transform: scale(1);        }      }    </style>  </defs>  <svg x="1380" y="0">    <svg y="1695">      <image x="0" y="0" height="1024" width="920" xlink:href="cube.svg"/>      <image x="458" y="229" height="1024" width="920" xlink:href="cube.svg"/>      <image x="916" y="458" height="1024" width="920" xlink:href="cube.svg"/>      <image x="1374" y="687" height="1024" width="920" xlink:href="cube.svg"/>    </svg>    <svg y="1130">      <image x="0" y="0" height="1024" width="920" xlink:href="cube.svg"/>      <image x="1374" y="687" height="1024" width="920" xlink:href="cube.svg"/>    </svg>    <svg y="565">      <image x="0" y="0" height="1024" width="920" xlink:href="cube.svg"/>      <image x="1374" y="687" height="1024" width="920" xlink:href="cube.svg"/>    </svg>    <svg y="0">      <image x="0" y="0" height="1024" width="920" xlink:href="cube.svg"/>      <image x="458" y="229" height="1024" width="920" xlink:href="cube.svg"/>      <image x="916" y="458" height="1024" width="920" xlink:href="cube.svg"/>      <image x="1374" y="687" height="1024" width="920" xlink:href="cube.svg"/>    </svg>  </svg>  <svg x="920" y="230">    <svg y="1695">      <image x="0" y="0" height="1024" width="920" xlink:href="cube.svg"/>      <image x="1374" y="687" height="1024" width="920" xlink:href="cube.svg"/>    </svg>    <svg y="0">      <image x="0" y="0" height="1024" width="920" xlink:href="cube.svg"/>      <image x="1374" y="687" height="1024" width="920" xlink:href="cube.svg"/>    </svg>  </svg>  <svg x="460" y="460">    <svg y="1695">      <image x="0" y="0" height="1024" width="920" xlink:href="cube.svg"/>      <image x="1374" y="687" height="1024" width="920" xlink:href="cube.svg"/>    </svg>    <svg y="0">      <image x="0" y="0" height="1024" width="920" xlink:href="cube.svg"/>      <image x="1374" y="687" height="1024" width="920" xlink:href="cube.svg"/>    </svg>  </svg>  <svg x="0" y="690">    <svg y="1695">      <image x="0" y="0" height="1024" width="920" xlink:href="cube.svg"/>      <image x="458" y="229" height="1024" width="920" xlink:href="cube.svg"/>      <image x="916" y="458" height="1024" width="920" xlink:href="cube.svg"/>      <image x="1374" y="687" height="1024" width="920" xlink:href="cube.svg"/>    </svg>    <svg y="1130">      <image x="0" y="0" height="1024" width="920" xlink:href="cube.svg"/>      <image x="1374" y="687" height="1024" width="920" xlink:href="cube.svg"/>    </svg>    <svg y="565">      <image x="0" y="0" height="1024" width="920" xlink:href="cube.svg"/>      <image x="1374" y="687" height="1024" width="920" xlink:href="cube.svg"/>    </svg>    <svg y="0">      <image x="0" y="0" height="1024" width="920" xlink:href="cube.svg"/>      <image x="458" y="229" height="1024" width="920" xlink:href="cube.svg"/>      <image x="916" y="458" height="1024" width="920" xlink:href="cube.svg"/>      <image x="1374" y="687" height="1024" width="920" xlink:href="cube.svg"/>    </svg>  </svg></svg>